<svg xmlns="http://www.w3.org/2000/svg" version="1.1" xmlns:xlink="http://www.w3.org/1999/xlink" xmlns:svgjs="http://svgjs.dev/svgjs" width="200" height="150" viewBox="0 0 2000 1500"><rect width="2000" height="1500" fill="#8abcd7"></rect><g transform="matrix(0.75,0,0,0.75,249.0909288066839,449.76534828413037)"><svg viewBox="0 0 396 159" data-background-color="#8abcd7" preserveAspectRatio="xMidYMid meet" height="803" width="2000" xmlns="http://www.w3.org/2000/svg" xmlns:xlink="http://www.w3.org/1999/xlink"><g id="tight-bounds" transform="matrix(1,0,0,1,0.23999479503544308,-0.235060817229936)"><svg viewBox="0 0 395.52 159.47011642949548" height="159.47011642949548" width="395.52"><g><svg viewBox="0 0 395.52 159.47011642949548" height="159.47011642949548" width="395.52"><g><svg viewBox="0 0 395.52 159.47011642949548" height="159.47011642949548" width="395.52"><g id="textblocktransform"><svg viewBox="0 0 395.52 159.47011642949548" height="159.47011642949548" width="395.52" id="textblock"><g><svg viewBox="0 0 395.52 159.47011642949548" height="159.47011642949548" width="395.52"><g transform="matrix(1,0,0,1,0,0)"><svg width="395.52" viewBox="3.75 -35.650001525878906 115.94999694824219 46.75" height="159.47011642949548" data-palette-color="#ffffff"><path d="M27.3 0.6L27.3 0.6Q24.75 0.6 22.7-0.58 20.65-1.75 19.48-3.88 18.3-6 18.3-8.75L18.3-8.75 18.3-26.8Q18.3-28.4 17.55-29.68 16.8-30.95 15.58-31.68 14.35-32.4 12.85-32.4L12.85-32.4Q11.35-32.4 10.1-31.68 8.85-30.95 8.1-29.68 7.35-28.4 7.35-26.8L7.35-26.8 7.35 0 3.75 0 3.75-26.25Q3.75-29 4.9-31.1 6.05-33.2 8.1-34.43 10.15-35.65 12.85-35.65L12.85-35.65Q15.5-35.65 17.55-34.43 19.6-33.2 20.78-31.1 21.95-29 21.95-26.25L21.95-26.25 21.95-8.2Q21.95-6.6 22.7-5.33 23.45-4.05 24.65-3.33 25.85-2.6 27.3-2.6L27.3-2.6Q28.75-2.6 29.95-3.33 31.15-4.05 31.88-5.33 32.6-6.6 32.6-8.2L32.6-8.2 32.6-26.25Q32.6-29 33.75-31.1 34.9-33.2 36.98-34.43 39.05-35.65 41.7-35.65L41.7-35.65Q44.4-35.65 46.43-34.43 48.45-33.2 49.6-31.1 50.75-29 50.75-26.25L50.75-26.25 50.75 0 47.15 0 47.15-26.8Q47.15-28.4 46.43-29.68 45.7-30.95 44.48-31.68 43.25-32.4 41.7-32.4L41.7-32.4Q40.2-32.4 38.93-31.68 37.65-30.95 36.93-29.68 36.2-28.4 36.2-26.8L36.2-26.8 36.2-8.75Q36.2-6 35.05-3.88 33.9-1.75 31.9-0.58 29.9 0.6 27.3 0.6ZM77.85 0L75.6 0Q72.95 0 71-1.13 69.05-2.25 68-4.25 66.95-6.25 66.95-8.8L66.95-8.8 66.95-31.8 55.85-31.8 55.85-35 81.65-35 81.65-31.8 70.55-31.8 70.55-8.3Q70.55-6.1 71.92-4.65 73.3-3.2 75.65-3.2L75.65-3.2 77.85-3.2 77.85 0ZM111.8 11.1L111.8 11.1Q109.5 11.1 107.62 10.13 105.75 9.15 104.67 7.28 103.59 5.4 103.59 2.7L103.59 2.7Q103.59 2.1 103.65 1.43 103.7 0.75 103.8 0.1L103.8 0.1Q99.7 0.45 96.09-0.65 92.5-1.75 89.75-4.15 87-6.55 85.45-9.98 83.9-13.4 83.9-17.7L83.9-17.7Q83.9-21.4 85.17-24.65 86.45-27.9 88.8-30.38 91.15-32.85 94.45-34.25 97.75-35.65 101.8-35.65L101.8-35.65Q105.9-35.65 109.2-34.27 112.5-32.9 114.84-30.45 117.2-28 118.45-24.78 119.7-21.55 119.7-17.9L119.7-17.9 119.7 2.35Q119.7 5.1 118.72 7.05 117.75 9 115.95 10.05 114.15 11.1 111.8 11.1ZM111.55 7.75L111.55 7.75Q113.45 7.75 114.77 6.45 116.09 5.15 116.09 2.5L116.09 2.5 116.09-11Q113.09-9.25 111.3-7.38 109.5-5.5 108.57-3.7 107.65-1.9 107.34-0.35 107.05 1.2 107.05 2.35L107.05 2.35Q107.05 4.1 107.67 5.33 108.3 6.55 109.34 7.15 110.4 7.75 111.55 7.75ZM101.8-3L101.8-3Q102.7-3 103.4-3.08 104.09-3.15 104.95-3.3L104.95-3.3Q105.65-5.2 106.97-7.2 108.3-9.2 110.52-11.13 112.75-13.05 116.09-14.8L116.09-14.8 116.09-17.9Q116.09-21 115.02-23.65 113.95-26.3 112.02-28.28 110.09-30.25 107.5-31.33 104.9-32.4 101.8-32.4L101.8-32.4Q98.75-32.4 96.12-31.3 93.5-30.2 91.57-28.23 89.65-26.25 88.57-23.55 87.5-20.85 87.5-17.7L87.5-17.7Q87.5-14.55 88.57-11.85 89.65-9.15 91.57-7.18 93.5-5.2 96.12-4.1 98.75-3 101.8-3Z" opacity="1" transform="matrix(1,0,0,1,0,0)" fill="#ffffff" class="wordmark-text-0" data-fill-palette-color="primary" id="text-0"></path></svg></g></svg></g></svg></g></svg></g></svg></g><defs></defs></svg><rect width="395.52" height="159.47011642949548" fill="none" stroke="none" visibility="hidden"></rect></g></svg></g></svg>